# xmcd
#
# Track frame offsets:
# 150
# 12694
# 28921
# 40450
# 58209
# 71154
# 84638
# 106254
# 122868
# 144392
#
# Disc length: 2148 seconds
#
#
# Revision: 0
# Processed by: cddbd v1.4PL0 Copyright (c) Steve Scherf et al.
# Submitted via: FreeRIP 2.11 
#
DISCID=9708620a
DTITLE=Melashenko Family Singers - Generations
DYEAR=2002
DGENRE=Christian Country
TTITLE0=Majesty
TTITLE1=Heavenly Love - Medley
TTITLE2=Where Could I Go?
TTITLE3=How Long Has it Been
TTITLE4=Heavenly Journey - Medley
TTITLE5=Satisfied
TTITLE6=Good-Bye World - Medley
TTITLE7=Peace In the Midst of the Strom
TTITLE8=Lift Up The Cross
TTITLE9=God and God Alone
EXTD=
EXTT0=
EXTT1=
EXTT2=
EXTT3=
EXTT4=
EXTT5=
EXTT6=
EXTT7=
EXTT8=
EXTT9=
PLAYORDER=
